# xmcd
#
# Track frame offsets:
#   150
#   11187
#   27706
#   43704
#   57090
#   70385
#   89211
#   106180
#   117210
#   135551
#   152540
#   169185
#   181512
#   197825
#   211411
#   227526
#   241984
#   256291
#   271898
#   284701
#   302554
#   317231
#   329685
#
# Disc length: 4591 seconds
#
# Revision: 0
# Processed by: cddbd v1.5.2PL0 Copyright (c) Steve Scherf et al.
# Submitted via: uFREEDB 1.6.0
#
DISCID=5211ed17
DTITLE=Altena, Dick van and Tulsa - Minstrel Man and The Best Of Tulsa
DYEAR=1900
DGENRE=country
TTITLE0=GOING UNDER
TTITLE1=LET ME BE YOUR FRIEND 
TTITLE2=DREAM MAKER
TTITLE3=LOVING HER WAS EASIER 
TTITLE4=HAPPY MAN
TTITLE5=LOVE HURTS 
TTITLE6=CAJUN MEMORY
TTITLE7=ALL YOU HAVE TO DO IS DREAM 
TTITLE8=RAINBOW CAFE 
TTITLE9=I CAN'T STOP LOVIN' YOU 
TTITLE10=MINSTREL MAN
TTITLE11=DON'T IT MAKE MY BROWN EYES BLUE 
TTITLE12=I NEVER TOLD HER
TTITLE13=YOU'RE MY BEST FRIEND 
TTITLE14=DUST ON THE FLATTOP 
TTITLE15=GOOD HEARTED WOMAN 
TTITLE16=LET ME IN
TTITLE17=IF I NEEDED YOU 
TTITLE18=MEMORY LANE
TTITLE19=SOME DAYS ARE DIAMONDS 
TTITLE20=LEAVING PARIS 
TTITLE21=ME AND YOU AND A DOG NAMED BOO 
TTITLE22=YOU NEEDED ME 
EXTD=
EXTT0=
EXTT1=
EXTT2=
EXTT3=
EXTT4=
EXTT5=
EXTT6=
EXTT7=
EXTT8=
EXTT9=
EXTT10=
EXTT11=
EXTT12=
EXTT13=
EXTT14=
EXTT15=
EXTT16=
EXTT17=
EXTT18=
EXTT19=
EXTT20=
EXTT21=
EXTT22=
PLAYORDER=
